{
  "accessors": [
    {
      "bufferView": 2,
      "componentType": 5126,
      "count": 1741,
      "max": [
        1.0,
        1.0,
        0.030966931954026222
      ],
      "min": [
        -1.0,
        -1.0,
        0.0
      ],
      "type": "VEC3"
    },
    {
      "bufferView": 2,
      "byteOffset": 20892,
      "componentType": 5126,
      "count": 1741,
      "max": [
        1.0,
        1.0,
        1.0
      ],
      "min": [
        -1.0,
        -1.0,
        -1.0
      ],
      "type": "VEC3"
    },
    {
      "bufferView": 1,
      "componentType": 5126,
      "count": 1741,
      "max": [
        1.0,
        1.0000001192092896
      ],
      "min": [
        0.0,
        0.0
      ],
      "type": "VEC2"
    },
    {
      "bufferView": 1,
      "byteOffset": 13928,
      "componentType": 5126,
      "count": 1741,
      "max": [
        1.0,
        1.0000001192092896
      ],
      "min": [
        0.0,
        0.0
      ],
      "type": "VEC2"
    },
    {
      "bufferView": 0,
      "componentType": 5125,
      "count": 5328,
      "type": "SCALAR"
    },
    {
      "bufferView": 2,
      "byteOffset": 41784,
      "componentType": 5126,
      "count": 283,
      "max": [
        1.0,
        1.0,
        0.030966931954026222
      ],
      "min": [
        -1.0,
        -1.0,
        0.028992950916290283
      ],
      "type": "VEC3"
    },
    {
      "bufferView": 2,
      "byteOffset": 45180,
      "componentType": 5126,
      "count": 283,
      "max": [
        0.0412331223487854,
        0.04124113917350769,
        1.0
      ],
      "min": [
        -0.04123309999704361,
        -0.04124101623892784,
        0.9991492629051208
      ],
      "type": "VEC3"
    },
    {
      "bufferView": 1,
      "byteOffset": 27856,
      "componentType": 5126,
      "count": 283,
      "max": [
        1.0,
        1.0000001192092896
      ],
      "min": [
        0.0,
        0.0
      ],
      "type": "VEC2"
    },
    {
      "bufferView": 0,
      "byteOffset": 21312,
      "componentType": 5125,
      "count": 966,
      "type": "SCALAR"
    },
    {
      "bufferView": 2,
      "byteOffset": 48576,
      "componentType": 5126,
      "count": 288,
      "max": [
        0.956070601940155,
        0.9637779593467712,
        0.03195429593324661
      ],
      "min": [
        -0.956070601940155,
        -0.8435923457145691,
        0.028426557779312134
      ],
      "type": "VEC3"
    },
    {
      "bufferView": 2,
      "byteOffset": 52032,
      "componentType": 5126,
      "count": 288,
      "max": [
        1.0,
        1.0,
        0.9987056851387024
      ],
      "min": [
        -1.0,
        -1.0,
        -1.0
      ],
      "type": "VEC3"
    },
    {
      "bufferView": 1,
      "byteOffset": 30120,
      "componentType": 5126,
      "count": 288,
      "max": [
        1.0,
        1.0
      ],
      "min": [
        0.0,
        0.0
      ],
      "type": "VEC2"
    },
    {
      "bufferView": 0,
      "byteOffset": 25176,
      "componentType": 5125,
      "count": 474,
      "type": "SCALAR"
    },
    {
      "bufferView": 2,
      "byteOffset": 55488,
      "componentType": 5126,
      "count": 32,
      "max": [
        0.9409788846969604,
        0.9495131373405457,
        0.03195429593324661
      ],
      "min": [
        -0.9409788846969604,
        -0.8293275237083435,
        0.03195429593324661
      ],
      "type": "VEC3"
    },
    {
      "bufferView": 2,
      "byteOffset": 55872,
      "componentType": 5126,
      "count": 32,
      "max": [
        0.0,
        0.0,
        1.0
      ],
      "min": [
        0.0,
        0.0,
        1.0
      ],
      "type": "VEC3"
    },
    {
      "bufferView": 1,
      "byteOffset": 32424,
      "componentType": 5126,
      "count": 32,
      "max": [
        1.0,
        1.0
      ],
      "min": [
        0.0,
        0.0
      ],
      "type": "VEC2"
    },
    {
      "bufferView": 0,
      "byteOffset": 27072,
      "componentType": 5125,
      "count": 90,
      "type": "SCALAR"
    },
    {
      "bufferView": 2,
      "byteOffset": 56256,
      "componentType": 5126,
      "count": 1792,
      "max": [
        0.3062734305858612,
        0.24197304248809814,
        0.0787527859210968
      ],
      "min": [
        -0.3076888620853424,
        -1.4140920639038086,
        -0.11409740895032883
      ],
      "type": "VEC3"
    },
    {
      "bufferView": 2,
      "byteOffset": 77760,
      "componentType": 5126,
      "count": 1792,
      "max": [
        1.0,
        0.9999984502792358,
        0.9999999403953552
      ],
      "min": [
        -1.0,
        -0.9999984502792358,
        -0.9999999403953552
      ],
      "type": "VEC3"
    },
    {
      "bufferView": 1,
      "byteOffset": 32680,
      "componentType": 5126,
      "count": 1792,
      "max": [
        0.875,
        1.0
      ],
      "min": [
        0.125,
        0.0
      ],
      "type": "VEC2"
    },
    {
      "bufferView": 0,
      "byteOffset": 27432,
      "componentType": 5125,
      "count": 2760,
      "type": "SCALAR"
    },
    {
      "bufferView": 2,
      "byteOffset": 99264,
      "componentType": 5126,
      "count": 1257,
      "max": [
        0.1478901207447052,
        -0.8508139848709106,
        0.031111756339669228
      ],
      "min": [
        -0.16021008789539337,
        -0.9671834111213684,
        0.031004318967461586
      ],
      "type": "VEC3"
    },
    {
      "bufferView": 2,
      "byteOffset": 114348,
      "componentType": 5126,
      "count": 1257,
      "max": [
        1.698368760116864e-05,
        -0.0007940219365991652,
        0.9999997019767761
      ],
      "min": [
        -2.381858939770609e-05,
        -0.0010114478645846248,
        0.9999995827674866
      ],
      "type": "VEC3"
    },
    {
      "bufferView": 1,
      "byteOffset": 47016,
      "componentType": 5126,
      "count": 1257,
      "max": [
        1.0,
        0.0
      ],
      "min": [
        0.0,
        0.0
      ],
      "type": "VEC2"
    },
    {
      "bufferView": 0,
      "byteOffset": 38472,
      "componentType": 5125,
      "count": 1257,
      "type": "SCALAR"
    }
  ],
  "asset": {
    "extras": {
      "author": "daltonmcgillivary1 (https://sketchfab.com/daltonmcgillivary1)",
      "license": "SKETCHFAB Standard (https://sketchfab.com/licenses)",
      "source": "https://sketchfab.com/3d-models/display-a91d49528b28481184515478d9de3c4e",
      "title": "Display"
    },
    "generator": "Sketchfab-16.8.0",
    "version": "2.0"
  },
  "bufferViews": [
    {
      "buffer": 0,
      "byteLength": 43500,
      "name": "floatBufferViews",
      "target": 34963
    },
    {
      "buffer": 0,
      "byteLength": 57072,
      "byteOffset": 43500,
      "byteStride": 8,
      "name": "floatBufferViews",
      "target": 34962
    },
    {
      "buffer": 0,
      "byteLength": 129432,
      "byteOffset": 100572,
      "byteStride": 12,
      "name": "floatBufferViews",
      "target": 34962
    }
  ],
  "buffers": [
    {
      "byteLength": 230004,
      "uri": "scene.bin"
    }
  ],
  "materials": [
    {
      "doubleSided": true,
      "name": "base",
      "pbrMetallicRoughness": {
        "baseColorFactor": [
          0.350555,
          0.350555,
          0.350555,
          1.0
        ],
        "metallicFactor": 0.0,
        "roughnessFactor": 0.9122922861325176
      }
    },
    {
      "doubleSided": true,
      "name": "material",
      "pbrMetallicRoughness": {
        "baseColorFactor": [
          0.0,
          0.0,
          0.0,
          1.0
        ],
        "metallicFactor": 0.0
      }
    },
    {
      "doubleSided": true,
      "name": "innter_bez",
      "pbrMetallicRoughness": {
        "baseColorFactor": [
          0.0,
          0.0,
          0.0,
          1.0
        ],
        "metallicFactor": 0.0
      }
    },
    {
      "doubleSided": true,
      "name": "screen",
      "pbrMetallicRoughness": {
        "baseColorFactor": [
          0.0495489,
          0.0495489,
          0.0495489,
          1.0
        ],
        "metallicFactor": 0.0,
        "roughnessFactor": 0.9843312620444084
      }
    },
    {
      "doubleSided": true,
      "name": "stand",
      "pbrMetallicRoughness": {
        "baseColorFactor": [
          0.342383,
          0.342383,
          0.342383,
          1.0
        ],
        "metallicFactor": 0.0,
        "roughnessFactor": 0.9135325021705364
      }
    },
    {
      "doubleSided": true,
      "name": "text",
      "pbrMetallicRoughness": {
        "baseColorFactor": [
          0.0,
          0.0,
          0.0,
          1.0
        ],
        "metallicFactor": 0.0
      }
    }
  ],
  "meshes": [
    {
      "name": "Plane.001_base_0",
      "primitives": [
        {
          "attributes": {
            "NORMAL": 1,
            "POSITION": 0,
            "TEXCOORD_0": 2,
            "TEXCOORD_1": 3
          },
          "indices": 4,
          "material": 0,
          "mode": 4
        }
      ]
    },
    {
      "name": "Plane.001_bez_0",
      "primitives": [
        {
          "attributes": {
            "NORMAL": 6,
            "POSITION": 5,
            "TEXCOORD_0": 7
          },
          "indices": 8,
          "material": 1,
          "mode": 4
        }
      ]
    },
    {
      "name": "Plane.001_innter bez_0",
      "primitives": [
        {
          "attributes": {
            "NORMAL": 10,
            "POSITION": 9,
            "TEXCOORD_0": 11
          },
          "indices": 12,
          "material": 2,
          "mode": 4
        }
      ]
    },
    {
      "name": "Plane.001_screen_0",
      "primitives": [
        {
          "attributes": {
            "NORMAL": 14,
            "POSITION": 13,
            "TEXCOORD_0": 15
          },
          "indices": 16,
          "material": 3,
          "mode": 4
        }
      ]
    },
    {
      "name": "Plane.001_stand_0",
      "primitives": [
        {
          "attributes": {
            "NORMAL": 18,
            "POSITION": 17,
            "TEXCOORD_0": 19
          },
          "indices": 20,
          "material": 4,
          "mode": 4
        }
      ]
    },
    {
      "name": "Plane.001_text_0",
      "primitives": [
        {
          "attributes": {
            "NORMAL": 22,
            "POSITION": 21,
            "TEXCOORD_0": 23
          },
          "indices": 24,
          "material": 5,
          "mode": 4
        }
      ]
    }
  ],
  "nodes": [
    {
      "children": [
        1
      ],
      "matrix": [
        1.0,
        0.0,
        0.0,
        0.0,
        0.0,
        2.220446049250313e-16,
        -1.0,
        0.0,
        0.0,
        1.0,
        2.220446049250313e-16,
        0.0,
        0.0,
        0.0,
        0.0,
        1.0
      ],
      "name": "Sketchfab_model"
    },
    {
      "children": [
        2
      ],
      "matrix": [
        0.009999999776482582,
        0.0,
        0.0,
        0.0,
        0.0,
        0.0,
        0.009999999776482582,
        0.0,
        0.0,
        -0.009999999776482582,
        0.0,
        0.0,
        0.0,
        0.0,
        0.0,
        1.0
      ],
      "name": "phoenix display.fbx"
    },
    {
      "children": [
        3
      ],
      "name": "RootNode"
    },
    {
      "children": [
        4,
        5,
        6,
        7,
        8,
        9
      ],
      "matrix": [
        717.769775390625,
        -1.5937609873741004e-13,
        -1.5885435199352672e-13,
        0.0,
        9.110300342119988e-14,
        411.6389002700907,
        -1.3497880786270695,
        0.0,
        5.60672797267353e-13,
        8.279770600440235,
        2525.045018859967,
        0.0,
        0.0,
        398.8768615722656,
        -158.94253540039063,
        1.0
      ],
      "name": "Plane.001"
    },
    {
      "mesh": 0,
      "name": "Plane.001_base_0"
    },
    {
      "mesh": 1,
      "name": "Plane.001_bez_0"
    },
    {
      "mesh": 2,
      "name": "Plane.001_innter bez_0"
    },
    {
      "mesh": 3,
      "name": "Plane.001_screen_0"
    },
    {
      "mesh": 4,
      "name": "Plane.001_stand_0"
    },
    {
      "mesh": 5,
      "name": "Plane.001_text_0"
    }
  ],
  "scene": 0,
  "scenes": [
    {
      "name": "Sketchfab_Scene",
      "nodes": [
        0
      ]
    }
  ]
}
